Simulation
nRows=48
nColumns=15
endheader
time  TH_x TH_y TH_z SC_y  SC_z  SC_x  AC_y  AC_z  AC_x  GH_y  GH_z  GH_yy  EL_x  PS_y
5.362  0.000000  0.000000  0.000000  -27.517753283041248  7.381341565040826  17.734836094748463  56.6141087402244  18.392378879480656  9.986975404395709  -6.934074065602785  65.39424450517416  7.285320396707798  13.56175266445795  120.000000
5.4156200000000005  0.000000  0.000000  0.000000  -27.669800749433435  7.359671079296591  18.39334630041866  56.828740813031054  17.77195406903389  9.426428181842102  -6.69238284024497  65.64849114536639  6.812126893069541  13.6184896571912  120.000000
5.46924  0.000000  0.000000  0.000000  -27.64816983055037  7.283769187169718  18.608649159419976  57.088841292098614  17.140361631842016  8.640943289802951  -6.389095454085359  65.65521145744606  6.3945823045733805  13.48692473695035  120.000000
5.52286  0.000000  0.000000  0.000000  -27.457191648922734  7.149244148807985  18.36413570332214  57.39037192273536  16.48513655506117  7.669121844296982  -6.036789913118364  65.36520017400287  6.002163945468448  13.224657960747356  120.000000
5.57648  0.000000  0.000000  0.000000  -27.11265842456317  6.942535034530411  17.657170518896972  57.71916809044765  15.792166305929648  6.575676500253117  -5.643282756721756  64.73365834669553  5.5962022863872525  12.916078810537954  120.000000
5.6301000000000005  0.000000  0.000000  0.000000  -26.642631698731375  6.646240015180302  16.495954276708623  58.045742666867135  15.05168064204011  5.44295056045694  -5.202514189722138  63.73447937135366  5.156382240374792  12.640016320264492  120.000000
5.68372  0.000000  0.000000  0.000000  -26.086475224037102  6.246071798100594  14.898334555202023  58.324726484591984  14.266983414907067  4.361017145566085  -4.692164106091296  62.37041030192221  4.699821686747026  12.44389335658574  120.000000
5.73734  0.000000  0.000000  0.000000  -25.488745196563496  5.736833550869461  12.894604399017494  58.50068292117132  13.460915385430347  3.41829548513507  -4.079431591255593  60.67104211309549  4.283534315114773  12.335585357141689  120.000000
5.79096  0.000000  0.000000  0.000000  -24.890363830102373  5.126998552469979  10.532545356109997  58.52027894350925  12.674864067360994  2.690681273108256  -3.331803849935387  58.67839782930315  3.9892138374127035  12.29459459836714  120.000000
5.8445800000000006  0.000000  0.000000  0.000000  -24.31921718184828  4.441681789111834  7.882648925937255  58.34650697407894  11.959156424472791  2.229356595194206  -2.4272875302764483  56.4280371702117  3.899909549998627  12.289380600907668  120.000000
5.8982  0.000000  0.000000  0.000000  -23.785073437177463  3.7205852575162317  5.04051962940102  57.967967544851255  11.360024836236965  2.0525309955653412  -1.3603159222855192  53.935741694969785  4.079470620625898  12.291132483146386  120.000000
5.95182  0.000000  0.000000  0.000000  -23.2798452192373  3.0134298796441494  2.1224325190121562  57.40077785754132  10.910757965331127  2.1422907434146308  -0.14396357845016303  51.1951904728473  4.561467919189172  12.27931886944451  120.000000
6.00544  0.000000  0.000000  0.000000  -22.784614186451655  2.3721882248153654  -0.7434943246123126  56.68237926121598  10.631126718034146  2.450642991144016  1.190812198918163  48.18792823866329  5.349342102633427  12.241975316638968  120.000000
6.059060000000001  0.000000  0.000000  0.000000  -22.279520741972114  1.8452401966064136  -3.4297767047765326  55.86489025350356  10.530913134981937  2.9115261531067884  2.602851285265498  44.90499328282666  6.421009412090515  12.175356333316923  120.000000
6.11268  0.000000  0.000000  0.000000  -21.755205819273332  1.4722206573427052  -5.823280187635468  55.00990667560431  10.612754304820388  3.457571868808881  4.0568981228569445  41.37260898987053  7.731618529668683  12.087557667250795  120.000000
6.1663  0.000000  0.000000  0.000000  -21.22242593891127  1.278076149669791  -7.842045536225045  54.183790411170634  10.869564197470739  4.03213394040797  5.537668458398697  37.667878526036226  9.217230534269593  12.000564990099084  120.000000
6.21992  0.000000  0.000000  0.000000  -20.718991082733446  1.2626111351796474  -9.444584153237438  53.44367418635854  11.278505622977411  4.601529381563218  7.050676257356935  33.91116085729556  10.80564089124132  11.94638804820963  120.000000
6.273540000000001  0.000000  0.000000  0.000000  -20.299965734887657  1.3997399910769293  -10.634478658145822  52.83212657962144  11.799489077610472  5.14974063967371  8.6090275611083  30.236788284725762  12.434472672786036  11.960738011468171  120.000000
6.32716  0.000000  0.000000  0.000000  -20.008958095791698  1.6483131602975314  -11.450183273297336  52.38861997696855  12.378209398470943  5.654723842480213  10.21971887432501  26.75813956214504  14.063692724126762  12.077870745977014  120.000000
6.38078  0.000000  0.000000  0.000000  -19.861465046208966  1.956369234181858  -11.934534237489009  52.13525923802502  12.958364523853904  6.097025242519104  11.863813027992796  23.545225098900445  15.687651086876746  12.327436192365578  120.000000
6.4344  0.000000  0.000000  0.000000  -19.83974251708818  2.2762205405232407  -12.125700637187704  52.07265182906256  13.502058813585645  6.465701507958534  13.486586040137757  20.625529419961257  17.33340999952251  12.730494252878271  120.000000
6.488020000000001  0.000000  0.000000  0.000000  -19.90299992927408  2.5781884508322617  -12.06084096238999  52.18941854400254  13.997524685833817  6.751732528399232  15.018820878393958  17.9956943630456  19.02806700491206  13.294000193446076  120.000000
6.54164  0.000000  0.000000  0.000000  -20.012113691582687  2.843999957820015  -11.772769783217376  52.45216765152936  14.451552954689193  6.957933845108826  16.402055244493624  15.632300631456744  20.7636969293826  13.998095437435456  120.000000
6.59526  0.000000  0.000000  0.000000  -20.146627472399718  3.066846497486066  -11.292678526312619  52.81080035903268  14.879630183716039  7.095260771964705  17.637639344244807  13.504271871048328  22.446874893601446  14.78707346813594  120.000000
6.64888  0.000000  0.000000  0.000000  -20.308127593824395  3.2532669300275874  -10.65461766193863  53.21506322405419  15.295735662104622  7.169226599530354  18.853586222266067  11.581406108218035  23.842854021999266  15.5762750501458  120.000000
6.702500000000001  0.000000  0.000000  0.000000  -20.512404529415058  3.4171844013322428  -9.896306858398413  53.62149402497681  15.706270492854758  7.177382188156023  20.341361605524572  9.835673784358553  24.564088175410056  16.273881436926647  120.000000
6.75612  0.000000  0.000000  0.000000  -20.775258416250573  3.5729122225161283  -9.05383437675638  53.99065552392966  16.110021366504515  7.118185364950339  22.52235963096753  8.241632530566601  24.134913692254106  16.809500738720253  120.000000
6.80974  0.000000  0.000000  0.000000  -21.095999827616822  3.7300017606614118  -8.15541873669178  54.289480944226526  16.50069170478997  6.999059714465542  25.880534483729747  6.7802780770511575  22.082391660525058  17.15684063861872  120.000000
6.86336  0.000000  0.000000  0.000000  -21.45087259140132  3.892673551837549  -7.2197698480744865  54.49847505880507  16.869239952355713  6.8363151965073055  30.95812426767194  5.4416967280739845  17.940385719839202  17.33771202040837  120.000000
6.916980000000001  0.000000  0.000000  0.000000  -21.801088310965234  4.06219016488492  -6.257693693155474  54.615550621090584  17.20536961133207  6.649174453152243  38.511702401735334  4.226210076738097  11.067794194974  17.403439907971563  120.000000
6.9706  0.000000  0.000000  0.000000  -22.106662998682143  4.237469316806831  -5.2763501724314175  54.657083928905536  17.497154981455047  6.455293325385578  50.119758941340024  3.1535379506468084  0.004484165966686118  17.411534415901325  120.000000
7.02422  0.000000  0.000000  0.000000  -22.337191684229687  4.414051705323663  -4.283779917413911  54.65518730541139  17.729397357880288  6.269714199778775  69.45412589949699  2.304801063086646  -18.829794414657737  17.410194957399128  120.000000
7.07784  0.000000  0.000000  0.000000  -22.483277011149568  4.5849123558925555  -3.2909816325244035  54.642457518610264  17.888925041838778  6.098782177838668  100.2145223743821  1.8946086734231482  -49.08530089928636  17.42667998273867  120.000000
7.131460000000001  0.000000  0.000000  0.000000  -22.56047641233122  4.745940315885744  -2.3107862777911734  54.63610402361959  17.97050149858  5.939134003959102  132.08431076459087  2.1024791653995276  -80.43247590536797  17.464736566132135  120.000000
7.18508  0.000000  0.000000  0.000000  -22.598075018489144  4.897101458200591  -1.3566672045199768  54.63972047062693  17.97521258189601  5.784136351511708  152.2629532747615  2.7111639289578147  -100.07675981984326  17.5157078728616  120.000000
7.2387  0.000000  0.000000  0.000000  -22.624851047608587  5.038390150641214  -0.44366974986272273  54.65306634752925  17.907449582397334  5.627142044810309  163.38604472332963  3.435521127964378  -110.66511547737402  17.56912186928111  120.000000
7.29232  0.000000  0.000000  0.000000  -22.659923222365574  5.168604555324676  0.4111327212979354  54.67781009898672  17.773018458285105  5.462570633521017  169.79485352871185  4.134046512156524  -116.54755622645648  17.618235330572272  120.000000
7.345940000000001  0.000000  0.000000  0.000000  -22.711741167535457  5.2841568895632784  1.1887147214068607  54.71761435646059  17.577116021189624  5.286973514818783  173.69141127756922  4.739046262781677  -119.93067847143271  17.66047347551842  120.000000
7.39956  0.000000  0.000000  0.000000  -22.779885382566444  5.379641904408556  1.8681603645171998  54.7777728424222  17.32386270286455  5.098402110052451  176.09896365962325  5.210587448012907  -121.83936036374642  17.696780654343616  120.000000
7.45318  0.000000  0.000000  0.000000  -22.857749206029887  5.448882871619578  2.4271663778727772  54.86321075514448  17.01608144260953  4.896806792944387  177.5128705399057  5.52059084506038  -122.76866270947151  17.730649643810608  120.000000
7.5068  0.000000  0.000000  0.000000  -22.934959039219688  5.48572681557668  2.8429374833222454  54.976740570744084  16.65556794547589  4.684287452638758  178.17520904408184  5.647535936793223  -122.95935499494453  17.767726188509382  120.000000
7.560420000000001  0.000000  0.000000  0.000000  -22.99954951411745  5.485074019579852  3.0940526236210255  55.117060316761304  16.24307577985888  4.465289237950565  178.19223454213378  5.57452668956328  -122.51629485137626  17.814197558645976  120.000000
7.61404  0.000000  0.000000  0.000000  -23.040128834280882  5.443756500088728  3.1622268828707574  55.27666504611321  15.77905642170546  4.2463511173251165  177.5776523001389  5.288785679854526  -121.45378392738972  17.874238599283796  120.000000
7.66766  0.000000  0.000000  0.000000  -23.047792649505624  5.361012949680359  3.0345767179682235  55.44085656631801  15.264882520789588  4.035880540193634  176.21788675734186  4.7823583290090514  -119.66425087741527  17.94620404029976  120.000000
7.72128  0.000000  0.000000  0.000000  -23.016357269987125  5.238790086632591  2.7058271622587267  55.588940599546845  14.704546187417497  3.8435143565713217  173.71726387065698  4.054654402461176  -116.76649568870431  18.020332820841514  120.000000
7.774900000000001  0.000000  0.000000  0.000000  -22.941290664720285  5.081551980208169  2.1786416190146323  55.69735696029291  14.104787812787084  3.6788786778104967  168.87710692143852  3.119473047593403  -111.58463353282843  18.078884123703954  120.000000
7.82852  0.000000  0.000000  0.000000  -22.817321541006212  4.894165281415137  1.4634934261721382  55.742423870029384  13.474112049224109  3.551804148526577  157.25678851699377  2.0319749696520524  -99.705961340931  18.098501578889813  120.000000
7.88214  0.000000  0.000000  0.000000  -22.634079287678546  4.680889395097913  0.5778933767705084  55.70548135481651  12.8239901221016  3.4726305872430308  116.08235530621147  1.1093966236742145  -58.38453200271192  18.05144432484078  120.000000
